<?xml version="1.0" encoding="UTF-8"?>
<svg id="Layer_2" data-name="Layer 2" xmlns="http://www.w3.org/2000/svg" viewBox="0 0 151.75 190.86">
  <defs>
    <style>
      .cls-1 {
        fill: #5c5c7b;
      }

      .cls-2 {
        fill: #e20707;
      }
    </style>
  </defs>
  <g id="Layer_1-2" data-name="Layer 1">
    <g>
      <path class="cls-2" d="m112.37,116.78c6.23,0,12.47,0,18.7,0,1.25,0,2.49,0,3.74,0,.33-.02.66-.05.98-.07.33-.57,1.59-.87,1.96-.43.11.12.16.52.12.54-.3.15-.62.25-.94.36-.24.24-.49.46-.72.71-9.51,10.36-19.01,20.71-28.52,31.07-9.13,9.95-18.26,19.9-27.39,29.85-1.08,1.18-2.13,2.4-3.19,3.6,0,.14,0,.28,0,.42,0,.51.11,1.2-.58,1.18-.59-.02-1.12-.35-.99-1.21-2.73-3-5.45-6.02-8.19-9.01-13.85-15.09-27.7-30.18-41.54-45.27-1.75-1.91-3.46-3.86-5.19-5.79-.55.44-.5-.1-.59-.43-1.45-1.56-2.89-3.13-4.34-4.69-.38-.16-.77-.32-1.15-.48.17-.3.35-.84.52-.84.35,0,.69.3,1.04.48l1.56.16c.92-.05,1.84-.1,2.76-.15,6.23,0,12.47,0,18.7,0,.92,0,1.84,0,2.76,0,.52-.02,1.04-.04,1.57-.06.4-.15.79-.29,1.19-.44.05-.06.11-.12.16-.18.4-.31.79-.61,1.19-.92,1.22-1.57,1.22-3.44,1.22-5.36,0-6.52.09-13.05.09-19.57.01-26.71,0-53.42,0-80.13,0-2.17,0-4.34,0-6.6h1.46c.36-.01.72-.03,1.08-.03,17.72,0,35.45,0,53.17,0,.36,0,.72-.02,1.08-.03.12-.16.24-.45.35-.44.37.04.74.18,1.11.28-.21.28-.42.56-.63.84-.02.14-.05.29-.07.43.02.07.04.14.07.21.25.39.7.77.72,1.17.04,1.17-.15,2.34-.15,3.51-.01,33.86,0,67.72-.02,101.58,0,.44-.24.87-.37,1.31,0,.25,0,.5,0,.74.4.7.8,1.39,1.2,2.09l1.35,1.13c1.52.78,3.15.27,4.72.47Z"/>
      <path class="cls-1" d="m40.52.81c.13-.07.26-.14.39-.21.2.13.4.26.6.38.12-.24.25-.49.37-.73.32-.08.65-.17.97-.25.06.01.13.03.19.03,21.78,0,43.56-.01,65.34-.01.43,0,.87.15,1.3.23.5.32.98.66,1.5.95.09.05.3-.15.46-.23.19.16.37.32.56.47-.21,1.06-.06,1.29.94,1.41,0,0,0,.05,0,.05.05.11.11.23.16.34.02.2.04.4.07.61-.13.29-.37.58-.37.87,0,.73.15,1.46.15,2.19,0,31.66,0,63.32,0,94.99,0,.3-.04.62.02.9.04.18.25.31.39.47l-.05,2.22c-.86.23-.54.84-.33,1.31.21.47.45.35.56-.12.13.02.25.04.38.05.26.53.52.53.78,0,.35-.01.71-.03,1.06-.03,9.96,0,19.92,0,29.88-.03,1.54,0,2.99.19,4.3,1.07,1.54,1.59,1.9,3.48,1.34,5.61-.19.33-.37.67-.56,1-.73.8-1.45,1.61-2.19,2.38-12.89,13.45-25.8,26.88-38.69,40.33-7.19,7.5-14.35,15.02-21.54,22.51-3.33,3.46-6.7,6.88-10.05,10.32-.28.14-.55.32-.84.41-.73.22-1.54.69-2.19.51-.98-.26-1.84-.99-2.76-1.52-.07-.08-.14-.15-.2-.23-.11-.11-.22-.23-.33-.34-.15-.16-.3-.32-.45-.47-.01-.07-.05-.11-.12-.12-1.87-1.99-3.73-3.98-5.62-5.95-21.1-22.01-42.21-44-63.29-66.03-.95-.99-1.65-2.25-2.47-3.39-.07-.47-.14-.95-.21-1.42l.06.02c.6-.23.83-.54.2-1.02.38-1.74,1.91-3.24,3.53-3.47.17-.02.34-.13.51-.2,4.2.01,8.39.03,12.59.03,7.1,0,14.2-.01,21.31-.02.25-.04.49-.09.74-.13-.23-.22-.46-.44-.7-.66-.02-.27-.04-.54-.06-.81,0-.2,0-.4,0-.61.04-1.07.12-2.14.12-3.21,0-31.16,0-62.32,0-93.48,0-.43-.04-.87-.06-1.3l.33-3.65.07.02c.05-.07.09-.15.14-.22h0c.55-.32,1.1-.65,1.75-1.03v-.8Zm66.46,115.18l-1.33-1.07c-.39-.66-.79-1.31-1.18-1.97,0-.23,0-.47,0-.7.13-.41.36-.82.36-1.23.02-31.9.01-63.79.02-95.69,0-1.1.19-2.21.15-3.3-.01-.38-.46-.74-.71-1.11-.02-.07-.04-.13-.06-.2.02-.13.04-.27.07-.4.21-.26.41-.53.62-.79-.36-.1-.72-.23-1.09-.26-.1,0-.23.27-.34.42-.35.01-.71.03-1.06.03-17.44,0-34.88,0-52.32,0-.35,0-.71.02-1.06.03h-1.44c0,2.13,0,4.17,0,6.22,0,25.16,0,50.32,0,75.48,0,6.15-.1,12.29-.09,18.44,0,1.81,0,3.57-1.2,5.05-.39.29-.78.58-1.17.87-.05.06-.11.11-.16.17-.39.14-.78.28-1.17.42-.51.02-1.03.04-1.54.06-.9,0-1.81,0-2.71,0-6.13,0-12.27,0-18.4,0-.91.05-1.81.1-2.72.14l-1.53-.15c-.34-.17-.68-.45-1.02-.45-.17,0-.34.51-.51.79.38.15.75.3,1.13.45,1.42,1.47,2.85,2.95,4.27,4.42.08.31.04.82.58.4,1.7,1.82,3.39,3.66,5.11,5.45,13.62,14.22,27.25,28.43,40.88,42.64,2.7,2.82,5.38,5.66,8.06,8.48-.13.8.4,1.12.97,1.14.68.02.57-.63.57-1.11,0-.13,0-.26,0-.39,1.05-1.13,2.07-2.28,3.14-3.4,8.98-9.38,17.97-18.75,26.95-28.12,9.35-9.76,18.71-19.51,28.06-29.27.22-.23.47-.45.7-.67.31-.11.63-.2.92-.34.03-.02-.02-.39-.12-.5-.37-.41-1.61-.13-1.93.41-.32.02-.65.04-.97.07-1.23,0-2.45,0-3.68,0-6.13,0-12.27,0-18.4,0-1.55-.19-3.15.29-4.65-.44Z"/>
    </g>
  </g>
</svg>