<?xml version="1.0" encoding="UTF-8"?>
<svg id="Layer_2" data-name="Layer 2" xmlns="http://www.w3.org/2000/svg" viewBox="0 0 208 208">
  <defs>
    <style>
      .cls-1 {
        fill: #fff;
      }

      .cls-2 {
        fill: none;
      }
    </style>
  </defs>
  <g id="Layer_1-2" data-name="Layer 1">
    <g>
      <path class="cls-1" d="m106.99,22.63h9.37c.42,0,.83,0,1.25,0,.31.12.62.23.92.35.74.08,1.47.16,2.21.25.21.09.41.19.62.28,1.32.13,2.66.13,3.94.4,5.59,1.17,11.09,2.55,16.36,4.9,5.96,2.66,11.51,5.87,16.51,10.06.12.09.24.17.36.26.62.55,1.24,1.1,1.87,1.65,1.15,1.15,2.29,2.29,3.44,3.44,2.63,3.61,5.46,7.08,7.82,10.86,1.77,2.83,2.95,6.03,4.39,9.07.18.22.37.44.55.66.52,1.35,1.04,2.71,1.56,4.06-.15.11-.29.21-.44.32.25.1.5.21.75.31,0,.21,0,.42,0,.62-.08.21-.15.42-.23.64.28.62.57,1.24.85,1.86-.15.09-.3.19-.44.28.18.12.35.23.53.35-.1.38-.4.91-.26,1.1,1.61,2.07.45,4.58,1.13,6.8.19.6,0,1.33-.05,2-.03.38-.26.77-.19,1.12.13.71.5,1.39.57,2.11.28,2.83-.54,5.73.61,8.51.06.13-.29.43-.44.65-.09-.04-.17-.08-.26-.13.07.06.13.12.2.18-.13.32-.34.63-.38.96-.34,2.56-.58,5.14-.97,7.69-.29,1.88-.63,3.76-1.17,5.59-.5,1.72-1.28,3.35-1.93,5.02-3.71,9.52-9.38,17.45-18.18,22.99-6.09,3.84-12.74,5.65-19.83,5.95-2.22.09-4.49-.24-6.7-.6-5.4-.9-9.36-3.95-11.94-8.71-.91-1.68-1.41-3.59-2.09-5.39-.08-.08-.17-.16-.25-.24l-.07-2.17c-.08-.17-.15-.34-.23-.51-.13.17-.25.34-.38.5-.29.34-.66.65-.87,1.04-1.76,3.17-4.34,5.62-6.95,8.05-.11.08-.23.16-.34.25-.41.34-.81.68-1.22,1.01-.11.08-.23.16-.34.24-2.03,1.25-3.98,2.7-6.12,3.72-3.24,1.54-6.75,2.16-10.33,2.6-3.49.42-6.86.43-10.14-.94-.29-.02-.58-.03-.86-.05-4.98-1.31-8.82-4.24-11.88-8.28-3.95-5.21-5.69-11.18-5.97-17.64-.11-.52-.21-1.04-.32-1.56.34-3.45.62-6.9,1.03-10.34.57-4.87,2.16-9.44,4.13-13.9,2.25-5.09,5.42-9.58,8.96-13.82,1.05-1.05,2.1-2.1,3.15-3.15.91-.73,1.81-1.46,2.72-2.19.12-.09.24-.17.36-.26,2.29-1.48,4.55-2.99,6.86-4.42,3.57-2.19,7.57-3.35,11.48-4.71.42-.14.78-.52,1.19-.57,2.22-.31,4.45-.53,6.68-.82,1.55-.2,3.1-.7,4.63-.65,3.73.13,7.47.39,11.18.83,3.61.43,7.18,1.16,10.77,1.76.21.04.42.09.63.13,2.22.89,4.46,1.75,6.66,2.72.39.17.77.78.81,1.22.06.68-.16,1.39-.28,2.09-.93,5.39-1.9,10.78-2.79,16.18-1.05,6.34-2.18,12.67-3,19.04-.44,3.38-2.02,6.71-.82,10.24-.2.21-.4.41-.6.62-.09,2.04-.39,4.1-.21,6.11.14,1.54.64,3.19,1.43,4.51,1.2,2.01,3.14,3.04,5.61,2.84,2.72-.22,5.38-.51,7.26-2.84.14.13.27.27.41.4.07-.32.14-.64.22-.96.1,0,.21,0,.31,0,.11.15.21.3.32.44.1-.15.21-.3.31-.44,1.15-1.06,2.29-2.13,3.44-3.19.17-.12.34-.23.51-.35-.14-.09-.29-.19-.43-.28.09-.26.13-.71.29-.76,1.94-.61,2.37-2.39,3.13-3.92.25-.12.49-.24.74-.37-.14-.19-.28-.38-.42-.58.2-.48.28-1.24.62-1.39,1.21-.52.96-1.33.71-2.18,1.4-1.1,1.66-2.64,1.79-4.24.94-.11.91-.63.55-1.29.28-1.04.68-2.07.81-3.13.25-2.06.35-4.13.52-6.2.18-.21.36-.42.54-.63.1-2.91.21-5.82.31-8.73.68-1.19-.31-.87-.86-.95.19-.75.71-1.61.5-2.22-.48-1.41-.22-2.79-.37-4.14-.33-3.04-1.3-6.01-2.01-9-.04-.3-.08-.61-.13-.91-.14-.62-.17-1.29-.43-1.84-1.04-2.2-2.16-4.36-3.25-6.53-.08-.11-.17-.22-.25-.34-.23-.31-.45-.61-.68-.92,0-.11,0-.22,0-.33-.2-.18-.46-.34-.6-.56-1.17-1.77-2.32-3.56-3.47-5.34-.18-.22-.36-.44-.54-.66-1.3-1.23-2.25-2.9-4.27-3.23-.22-.03-.32-.75-.48-1.15,0-.25,0-.5-.01-.74-.21.05-.42.1-.63.15-.31-.03-.62-.06-.92-.1l-.67-1.5c-.4-.31-.77-.67-1.21-.92-2.66-1.51-5.25-3.16-8.02-4.43-2.74-1.25-5.67-2.1-8.51-3.12-.21-.07-.43-.15-.64-.22-.2-.03-.41-.06-.61-.09-.21-.07-.43-.15-.64-.22-1.87-.31-3.75-.62-5.62-.94-.42-.03-.84-.06-1.26-.09-.78-.32-1.55-.86-2.34-.89-1.29-.06-2.6.22-3.89.36-.42-.1-.83-.21-1.25-.31-3.8.19-7.6.31-11.4.61-1.48.12-2.92.64-4.38.98-.09-.03-.18-.07-.27-.1.07.05.14.11.21.16-.12.15-.28.44-.34.42-2.09-.67-3.78.88-5.72,1.04-.74.06-1.43.59-2.15.9-.21.1-.42.21-.63.31-1.43.61-2.87,1.19-4.28,1.84-1.5.7-2.97,1.47-4.46,2.22-.42.18-.84.37-1.26.55-1.27.75-2.54,1.49-3.8,2.24-.19.22-.37.44-.56.66l-1.95,1.22c-.08.08-.16.16-.24.24-.11.04-.21.08-.32.13-.12.08-.23.16-.35.24-.41.33-.81.67-1.22,1-.11.08-.23.16-.34.25-.43.42-.85.84-1.28,1.26-.08.08-.16.16-.24.24-1.56,1.53-3.16,3.03-4.68,4.6-.9.94-1.68,2-2.51,3.01-.11.08-.22.17-.33.25-5.6,7.06-9.46,15.01-12.12,23.58-1.96,6.32-2.82,12.84-3.09,19.39-.2,4.72.3,9.46.56,14.2.24,4.36,1.32,8.56,2.82,12.62,1.34,3.62,2.85,7.2,4.67,10.6,3.87,7.25,9.98,13.88,17.33,18.06,2.56,1.46,5.18,2.84,7.87,4.05,5.35,2.41,10.98,3.8,16.83,4.32,1.53.14,3.08.14,4.59.36,3.96.6,7.87.2,11.78-.38.21-.18.42-.36.63-.55.61.19,1.26.61,1.83.52,2.83-.44,5.68-.85,8.44-1.57,3.22-.84,6.38-1.92,9.52-3.03,1.63-.58,3.15-1.46,4.74-2.17.1-.05.33.17.49.26.09.11.17.22.26.34.43,1.54.8,3.1,1.3,4.62.66,2.03,1.42,4.02,2.14,6.03.09.19.17.38.26.57.22,1.05-.11,1.75-1.21,2.05-.92.25-1.89.43-2.71.87-4.99,2.73-10.53,3.78-15.94,5.11-3.57.88-7.33.95-11.01,1.39-1.43.09-2.86.28-4.29.24-5.83-.16-11.67-.33-17.49-.64-2.27-.12-4.59-.37-6.76-1.01-4.06-1.19-8.09-2.54-12.01-4.12-6.31-2.54-12.03-6.14-17.24-10.52-.12-.09-.24-.17-.36-.26-1.01-.87-2.05-1.7-3.02-2.61-5.45-5.16-9.7-11.24-13.45-17.7-.42-.84-.85-1.68-1.27-2.52-1.63-4.78-3.53-9.5-4.79-14.37-1-3.84-1.21-7.88-1.76-11.83-.19-.21-.39-.41-.58-.62.08-.73.23-1.46.24-2.19.03-2.12.05-4.24,0-6.36-.03-1.31-.21-2.62-.33-3.93.21-.22.42-.43.63-.65.11-1.73-.03-3.53.4-5.18.68-2.63.41-5.37,1.44-7.98.94-2.38,1.18-5.03,1.96-7.48,1.99-6.27,4.48-12.33,7.85-18.02,4.25-7.17,9.2-13.74,15.32-19.43,4.09-3.8,8.44-7.26,13.25-10.03,4-2.3,8.15-4.39,12.41-6.15,4.02-1.66,8.21-3.01,12.44-4.02,3.73-.89,7.63-1.11,11.44-1.67.65-.1,1.28-.4,1.91-.61.31,0,.62,0,.94,0,.3.08.59.16.89.24.43-.08.86-.16,1.3-.24Zm-2.72,61.56c-.1.01-.15.06-.17.16-.12.13-.24.26-.36.4-.73.73-1.46,1.46-2.19,2.19-.39.43-.78.86-1.16,1.29-.34.51-.68,1.01-1.03,1.52-.21.31-.42.61-.64.92l-1.58,2.54c-.41.83-.83,1.67-1.24,2.5-.91,2.92-1.82,5.84-2.72,8.76-.1.42-.21.83-.31,1.25-.12,2.29-.4,4.6-.32,6.88.09,2.6.61,5.16,1.89,7.49.08.11.16.21.25.32.2.21.39.42.59.63.34.45.68.91,1.02,1.36.02.08.07.13.15.14,1.29.75,2.57,1.5,3.86,2.25.55.17,1.08.45,1.64.51,3.11.31,6.05-.07,8.54-2.2.08.04.16.08.24.12-.07-.05-.15-.1-.22-.15.65-.38,1.3-.75,1.95-1.13.11-.08.23-.16.34-.24,2.64-2.02,4.58-4.7,6.17-7.52,1.37-2.44,2.17-5.21,3.21-7.84.1-.21.2-.42.3-.63.53-2.63,1.1-5.25,1.56-7.89.28-1.62.4-3.28.59-4.92.1-.52.21-1.04.31-1.56.03-.41.06-.82.09-1.24.08-.21.15-.43.23-.64.34-2.5.67-4.99,1.01-7.49.08-.42.16-.84.24-1.26.25-.85-.07-1.45-.92-1.54-2.27-.25-4.56-.4-6.84-.59-.53.08-1.05.15-1.58.23-.72.03-1.45.06-2.17.09-.42.18-.84.36-1.26.54-1.98.76-3.95,1.53-5.93,2.29-.11.08-.23.15-.34.23-.51.34-1.02.67-1.52,1.01-.21.18-.43.35-.64.53-.2.14-.41.27-.61.41-.14.09-.28.19-.42.28Z"/>
      <rect class="cls-2" width="208" height="208"/>
    </g>
  </g>
</svg>