<?xml version="1.0" encoding="UTF-8"?>
<svg id="Layer_2" data-name="Layer 2" xmlns="http://www.w3.org/2000/svg" viewBox="0 0 154 180">
  <defs>
    <style>
      .cls-1 {
        fill: none;
      }

      .cls-2 {
        fill: #ea0a0a;
      }
    </style>
  </defs>
  <g id="Layer_1-2" data-name="Layer 1">
    <g>
      <g>
        <path class="cls-2" d="m94.63,12.52c2.12,0,4.14.84,5.64,2.34,1.5,1.5,2.34,3.52,2.34,5.64s-.84,4.14-2.34,5.64c-1.5,1.5-3.52,2.34-5.64,2.34h-31.9c-2.12,0-4.14-.84-5.64-2.34-1.5-1.5-2.34-3.52-2.34-5.64s.84-4.14,2.34-5.64c1.5-1.5,3.52-2.34,5.64-2.34h31.9Z"/>
        <path class="cls-2" d="m142.48,36.45c2.12,0,4.14.84,5.64,2.34,1.5,1.5,2.34,3.52,2.34,5.64s-.84,4.14-2.34,5.64c-1.5,1.5-3.52,2.34-5.64,2.34h-7.98l-.02.57-7.44,104.26c-.29,4.02-2.09,7.79-5.04,10.54-2.95,2.75-6.84,4.28-10.87,4.28H46.21c-4.03,0-7.92-1.53-10.87-4.28-2.95-2.75-4.75-6.52-5.04-10.54l-7.44-104.25c-.01-.19-.02-.38-.02-.57h-7.98c-2.12,0-4.14-.84-5.64-2.34-1.5-1.5-2.34-3.52-2.34-5.64s.84-4.14,2.34-5.64,3.52-2.34,5.64-2.34h127.62Zm-87.48,113.55V59c0-2.76-2.24-5-5-5h0c-2.76,0-5,2.24-5,5v91c0,2.76,2.24,5,5,5h0c2.76,0,5-2.24,5-5Zm29,0V59c0-2.76-2.24-5-5-5h0c-2.76,0-5,2.24-5,5v91c0,2.76,2.24,5,5,5h0c2.76,0,5-2.24,5-5Zm29,0V59c0-2.76-2.24-5-5-5h0c-2.76,0-5,2.24-5,5v91c0,2.76,2.24,5,5,5h0c2.76,0,5-2.24,5-5Z"/>
      </g>
      <rect class="cls-1" width="154" height="180"/>
    </g>
  </g>
</svg>