<?xml version="1.0" encoding="UTF-8"?>
<svg id="Layer_2" data-name="Layer 2" xmlns="http://www.w3.org/2000/svg" xmlns:xlink="http://www.w3.org/1999/xlink" viewBox="0 0 600 659.02">
  <defs>
    <style>
      .cls-1 {
        fill: url(#linear-gradient-2);
      }

      .cls-2 {
        fill: url(#linear-gradient-6);
      }

      .cls-3 {
        fill: url(#linear-gradient-5);
      }

      .cls-4 {
        fill: url(#linear-gradient-3);
      }

      .cls-5 {
        fill: url(#linear-gradient);
      }

      .cls-6 {
        fill: url(#linear-gradient-4);
      }
    </style>
    <linearGradient id="linear-gradient" x1="300" y1="0" x2="300" y2="659.02" gradientUnits="userSpaceOnUse">
      <stop offset="0" stop-color="#876cff"/>
      <stop offset=".19" stop-color="#8d6dff"/>
      <stop offset=".46" stop-color="#9f70ff"/>
      <stop offset=".78" stop-color="#bd76ff"/>
      <stop offset="1" stop-color="#d77cff"/>
    </linearGradient>
    <linearGradient id="linear-gradient-2" x1="300.15" y1="9.09" x2="300.15" y2="500.28" xlink:href="#linear-gradient"/>
    <linearGradient id="linear-gradient-3" x1="364.76" y1="120.81" x2="364.76" y2="617.4" xlink:href="#linear-gradient"/>
    <linearGradient id="linear-gradient-4" x1="236.76" y1="119.8" x2="236.76" y2="616.95" xlink:href="#linear-gradient"/>
    <linearGradient id="linear-gradient-5" x1="289.24" y1="97.94" x2="312.24" y2="97.94" gradientUnits="userSpaceOnUse">
      <stop offset="0" stop-color="#876cff"/>
      <stop offset="1" stop-color="#876cff"/>
    </linearGradient>
    <linearGradient id="linear-gradient-6" x1="300.34" y1="217.01" x2="300.34" y2="442.94" xlink:href="#linear-gradient"/>
  </defs>
  <g id="Layer_1-2" data-name="Layer 1">
    <g>
      <path class="cls-5" d="m34.04,140.5L266.97,8.7c20.49-11.6,45.57-11.6,66.06,0l232.93,131.8c21.04,11.9,34.04,34.2,34.04,58.37v261.28c0,24.17-13,46.47-34.04,58.37l-232.93,131.8c-20.49,11.6-45.57,11.6-66.06,0l-232.93-131.8C13,506.62,0,484.32,0,460.15V198.87c0-24.17,13-46.47,34.04-58.37Zm-4.04,75.34v227.89c0,24.17,13,46.47,34.04,58.37l203.43,115.11c20.49,11.6,45.57,11.6,66.06,0l203.43-115.11c21.04-11.9,34.04-34.2,34.04-58.37v-227.89c0-24.17-13-46.47-34.04-58.37l-203.43-115.11c-20.49-11.6-45.57-11.6-66.06,0l-203.43,115.11c-21.04,11.9-34.04,34.2-34.04,58.37Z"/>
      <path class="cls-1" d="m108.34,107.63L267.12,17.79c20.49-11.6,45.57-11.6,66.06,0l158.78,89.84c21.04,11.9,34.04,34.2,34.04,58.37v177.36c0,24.17-13,46.47-34.04,58.37l-158.78,89.84c-20.49,11.6-45.57,11.6-66.06,0l-158.78-89.84c-21.04-11.9-34.04-34.2-34.04-58.37v-177.36c0-24.17,13-46.47,34.04-58.37Zm-11.46,71.14v152.23c0,24.17,13,46.47,34.04,58.37l136.57,77.28c20.49,11.6,45.57,11.6,66.06,0l136.57-77.28c21.04-11.9,34.04-34.2,34.04-58.37v-152.23c0-24.17-13-46.47-34.04-58.37l-136.57-77.28c-20.49-11.6-45.57-11.6-66.06,0l-136.57,77.28c-21.04,11.9-34.04,34.2-34.04,58.37Z"/>
      <path class="cls-4" d="m170.56,220.7l161.16-91.19c20.49-11.6,45.57-11.6,66.06,0l161.16,91.19c21.04,11.9,34.04,34.2,34.04,58.37v180.06c0,24.17-13,46.47-34.04,58.37l-161.16,91.19c-20.49,11.6-45.57,11.6-66.06,0l-161.16-91.19c-21.04-11.9-34.04-34.2-34.04-58.37v-180.06c0-24.17,13-46.47,34.04-58.37Zm-11.22,71.28v154.66c0,24.17,13,46.47,34.04,58.37l138.72,78.49c20.49,11.6,45.57,11.6,66.06,0l138.72-78.49c21.04-11.9,34.04-34.2,34.04-58.37v-154.66c0-24.17-13-46.47-34.04-58.37l-138.72-78.49c-20.49-11.6-45.57-11.6-66.06,0l-138.72,78.49c-21.04,11.9-34.04,34.2-34.04,58.37Z"/>
      <path class="cls-6" d="m42.31,219.83l161.41-91.33c20.49-11.6,45.57-11.6,66.06,0l161.41,91.33c21.04,11.9,34.04,34.2,34.04,58.37v180.34c0,24.17-13,46.47-34.04,58.37l-161.41,91.33c-20.49,11.6-45.57,11.6-66.06,0l-161.41-91.33c-21.04-11.9-34.04-34.2-34.04-58.37v-180.34c0-24.17,13-46.47,34.04-58.37Zm-11.19,71.29v154.92c0,24.17,13,46.47,34.04,58.37l138.95,78.62c20.49,11.6,45.57,11.6,66.06,0l138.95-78.62c21.04-11.9,34.04-34.2,34.04-58.37v-154.92c0-24.17-13-46.47-34.04-58.37l-138.95-78.62c-20.49-11.6-45.57-11.6-66.06,0l-138.95,78.62c-21.04,11.9-34.04,34.2-34.04,58.37Z"/>
      <rect class="cls-3" x="289.24" y="23.94" width="23" height="148" rx="9.37" ry="9.37"/>
      <path class="cls-2" d="m380.27,251.74c1.62,2.33,3.24,4.66,4.86,6.99,1.42,2.64,2.96,5.23,4.22,7.94,1.27,2.73,2.22,5.61,3.4,8.39.31.73.96,1.33,1.45,1.98.02.21.03.42.05.64.04.26.08.52.12.78.9,2.69,1.81,5.38,2.68,8.08.18.56.23,1.17.4,2.09-1.32.12-2.47.16-3.59.34-.57.09-1.1.45-1.65.68-1.29.26-2.58.52-3.88.79-.51.11-1.02.2-1.53.34-1.34.37-2.69.74-4.02,1.17-.73.24-1.42.61-2.14.88-.62.23-1.27.4-1.62.51-1.27-3.29-2.51-6.47-3.74-9.65-1.1-4.83-3.93-8.82-6.28-13.04-3.46-5.93-7.73-11.2-12.96-15.67-4.28-4.11-9.3-7.11-14.6-9.67-.72-1.84-2.55-1.39-3.91-1.86-3.39-1.19-6.82-2.28-10.23-3.41-.56-.2-1.11-.4-1.67-.59-1.17-.4-2.35-1.14-3.51-1.12-3.19.05-6.34.19-9.24-1.47-.29-.16-.86-.24-1.07-.07-1.35,1.14-2.82.27-4.22.32-4.38.16-8.77.18-13.14.41-4.98.26-9.98.46-14.8,1.9-5.45,1.62-11.08,2.71-16.14,5.53-4.3,2.4-8.62,4.79-12.25,8.11-3.08,2.82-5.88,5.96-8.8,8.96-1.88,2.63-3.75,5.26-5.63,7.89-2.25,4.85-4.5,9.7-6.74,14.55-3.33,7.73-4.69,15.92-5.69,24.19-.33,2.49-.67,4.98-1,7.46-.13,4.47-.25,8.94-.38,13.41,0,2.48,0,4.97,0,7.45-.02.68-.1,1.36-.04,2.03.37,4.05.77,8.09,1.16,12.13.1.53.2,1.06.31,1.58,1.11,5.26,2.1,10.54,3.37,15.75.81,3.34,2.04,6.57,3.08,9.85,1.98,3.98,3.97,7.95,5.95,11.93,1.71,2.36,3.35,4.77,5.14,7.06,2,2.56,3.99,5.17,6.28,7.45,1.75,1.75,3.97,3.03,5.98,4.52,2.26,1.43,4.39,3.16,6.8,4.22,5.33,2.35,10.71,4.69,16.26,6.43,6.76,2.12,13.87,2.75,20.92,3.01,5.32.2,10.68-.48,16.02-.77,2.39-.1,4.82.04,7.16-.37,2.44-.43,4.81-1.34,7.18-2.13,2.07-.69,4.11-1.51,6.16-2.27,3.29-1.01,6.36-2.46,9.16-4.47,1.69-1.21,3.36-2.43,5.04-3.65.76-.59,1.54-1.16,2.29-1.76,5.99-4.81,10.81-10.55,13.95-17.62.89-2.94,1.78-5.87,2.67-8.81.19-1.52.36-3.03.57-4.55.58-4.07.02-8.04-.94-11.99.02-.18.08-.38.04-.55-1.81-7.21-5.66-13.16-11.31-17.92-1.66-1.4-3.53-2.54-5.5-3.94-.34,1.89-.56,3.43-.9,4.94-.76,3.35-1.57,6.69-2.36,10.03-2.13,4.33-4.25,8.66-6.38,12.98-2.06,2.47-4.11,4.94-6.17,7.41-.65.44-1.31.85-1.93,1.33-1.24.96-2.37,2.08-3.67,2.93-6.73,4.36-14.19,6.61-22.11,7.45-.49-.02-1.01-.13-1.48-.05-5.43.96-10.71-.06-16-1.09-5.06-.99-9.57-3.3-14.05-5.69-3.66-1.86-6.43-4.82-9-7.86-3.89-4.6-6.34-10-7.56-15.93-.24-2.06-.83-4.15-.65-6.17.35-4.05,1.13-8.06,1.73-12.09,1.78-3.31,3.55-6.63,5.33-9.94,2.21-2.21,4.29-4.59,6.67-6.6,4.42-3.74,9.66-6.02,15.14-7.79,14.4-4.23,29.01-3.19,43.87-1.66-.3-1.59-.49-3.16-.91-4.67-1.7-6.1-4.32-11.66-9.89-15.22-8.26-5.29-17.31-5.67-26.57-3.83-6.57,1.3-11.91,4.81-15.82,10.3-.66.92-1.16.82-1.94.28-4.52-3.1-9.05-6.18-13.58-9.27-.46-.41-.91-.81-1.46-1.3,1.53-1.96,3.02-3.88,4.51-5.79,1.69-1.53,3.33-3.12,5.08-4.58,6.18-5.14,13.34-8.19,21.19-9.61,4.63-.83,9.3-.97,14.01-.78,4.6.18,9.06.94,13.46,2.2,1.97.56,3.88,1.31,5.82,1.98,3.59,2.37,7.26,4.62,10.72,7.16,1.56,1.14,2.69,2.85,4.02,4.3,4.4,5.4,7.27,11.58,9.13,18.25.52,1.88.97,3.77,1.45,5.66.38,3.39.72,6.79,1.21,10.16.08.55.77,1.21,1.34,1.46,5.9,2.58,11.24,6.01,16.18,10.16,6,5.04,10.72,11.03,13.95,18.12,1.46,3.22,2.39,6.68,3.56,10.02.35,2.21.83,4.41,1.03,6.63.27,3,.32,6.02.46,9.03-.25,2.98-.5,5.96-.74,8.94-1.21,4.14-2.21,8.35-3.7,12.38-1.22,3.31-3.01,6.41-4.55,9.6-2.07,2.71-3.98,5.56-6.25,8.1-2.53,2.83-5.33,5.44-8.12,8.03-1.95,1.81-4.07,3.42-6.12,5.12-2.12,1.36-4.24,2.72-6.35,4.08-.71.26-1.45.46-2.13.8-.69.35-1.28.94-1.99,1.25-3.96,1.69-7.94,3.33-11.92,4.99-2.31.55-4.6,1.19-6.93,1.61-2.04.36-4.15.35-6.18.73-1.14.22-2.19.91-3.28,1.38-6.71.32-13.41.81-20.13.91-6.95.1-13.83-.83-20.65-2.15-2-.39-4.17-.3-5.76-1.96-.11-.12-.55.1-.84.13-.55.05-1.18.26-1.64.08-2.07-.81-4.09-1.74-6.13-2.63-.16-.07-.3-.27-.44-.26-3.84.23-6.59-2.58-9.99-3.56-1.54-1.02-3.05-2.08-4.63-3.03-.55-.33-1.39-.21-1.89-.58-3.26-2.34-6.54-4.65-9.64-7.18-2.23-1.82-4.21-3.95-6.25-5.99-.57-.57-.95-1.31-1.42-1.98-1.1-1.11-2.4-2.09-3.26-3.36-2.88-4.24-5.6-8.59-8.38-12.91-.84-1.31-1.66-2.63-2.49-3.95-1.17-2.75-2.34-5.5-3.51-8.25-.96-2.63-1.97-5.24-2.85-7.89-.47-1.42-.73-2.91-1.09-4.37-.63-2.46-1.4-4.89-1.86-7.37-.66-3.53-1.06-7.1-1.62-10.65-.44-2.81-.96-5.61-1.44-8.41-.21-4.23-.42-8.45-.63-12.68,0-2.48,0-4.95,0-7.43.09-2.86.17-5.72.26-8.58.63-5.07,1.25-10.14,1.89-15.2.34-2.64.73-5.27,1.09-7.91.47-.84,1.49-1.81,1.32-2.48-.62-2.46.55-4.56,1.17-6.67,1.38-4.7,3.18-9.28,4.82-13.91.68-1.11,1.47-2.16,2.02-3.33.51-1.08.59-2.39,1.18-3.41,2.17-3.78,4.47-7.49,6.74-11.22.25-.4.7-.68.95-1.07.46-.71.85-1.48,1.26-2.22,1.56-1.78,3.01-3.67,4.71-5.31,3.49-3.38,7.07-6.67,10.69-9.9.79-.7,2.02-.88,2.89-1.51,1.94-1.4,3.76-2.95,5.67-4.39.66-.5,1.45-.84,2.17-1.25,1.84-.81,3.61-1.91,5.53-2.39,4.37-1.09,8.02-4.3,12.83-4.14,1.04.04,2.18-1.37,3.15-1.23,2.29.34,4.08-1.6,6.46-.97,1.12.3,2.54-.76,3.87-.98,2.7-.46,5.42-.93,8.15-1.09,4.44-.27,8.88-.31,13.33-.39,1.09-.02,2.18.19,3.27.3,4.92.52,9.85.92,14.74,1.59,3.26.44,6.47,1.21,9.69,1.92,1.57.35,3.09.89,4.64,1.35,2.09.81,4.15,1.7,6.26,2.43,3.29,1.14,6.49,2.37,9.12,4.79.52.47,1.3.64,1.93,1.01.79.46,1.55.96,2.31,1.47.25.17.42.46.68.6,2.04,1.07,4.09,2.13,6.14,3.18,2.63,2.31,5.36,4.53,7.85,6.98,1.49,1.47,3.46,2.73,3.59,5.21.01.26.29.72.44.72,2.27-.04,2.92,2.02,4.24,3.2Zm-51.12,97.19c1.64-4.49,2.13-9.18,2.69-14.34-6.38-.58-12.52-1.31-18.68-1.65-3.62-.2-7.3,0-10.91.37-3,.31-5.94,1.15-8.91,1.76-7.19,2.01-12.68,5.89-14.82,13.46-.84,3.06-.51,6.02.73,8.92,2.61,6.15,7.79,9.04,13.79,10.81,4.72,1.4,9.54,1.47,14.39.77,5.07-.73,9.68-2.46,13.51-5.97,4.41-3.74,6.65-8.74,8.21-14.13Z"/>
    </g>
  </g>
</svg>