<?xml version="1.0" encoding="UTF-8"?>
<svg id="Layer_2" data-name="Layer 2" xmlns="http://www.w3.org/2000/svg" viewBox="0 0 140.57 140.57">
  <defs>
    <style>
      .cls-1, .cls-2 {
        fill: #fff;
      }

      .cls-2 {
        fill-rule: evenodd;
      }
    </style>
  </defs>
  <g id="Layer_1-2" data-name="Layer 1">
    <g>
      <path class="cls-1" d="m50.67,70.29c0,3.61-2.93,6.54-6.54,6.54s-6.54-2.93-6.54-6.54,2.93-6.54,6.54-6.54,6.54,2.93,6.54,6.54Z"/>
      <path class="cls-1" d="m76.82,70.29c0,3.61-2.93,6.54-6.54,6.54s-6.54-2.93-6.54-6.54,2.93-6.54,6.54-6.54,6.54,2.93,6.54,6.54Z"/>
      <path class="cls-1" d="m102.98,70.29c0,3.61-2.93,6.54-6.54,6.54s-6.54-2.93-6.54-6.54,2.93-6.54,6.54-6.54,6.54,2.93,6.54,6.54Z"/>
      <path class="cls-2" d="m140.57,70.29C140.57,31.47,109.1,0,70.29,0S0,31.47,0,70.29c0,11.23,2.64,21.87,7.34,31.3.7,1.41.85,2.84.53,4.05l-3.89,14.55c-2.67,9.96,6.45,19.08,16.41,16.41l14.55-3.89c1.21-.32,2.65-.17,4.05.53,9.43,4.7,20.06,7.34,31.3,7.34,38.82,0,70.29-31.47,70.29-70.29ZM70.29,9.81c33.4,0,60.48,27.08,60.48,60.48s-27.08,60.48-60.48,60.48c-9.68,0-18.82-2.27-26.92-6.31-3.25-1.62-7.14-2.24-10.96-1.22l-14.55,3.89c-2.67.72-5.12-1.73-4.4-4.4l3.89-14.55c1.02-3.82.4-7.71-1.22-10.96-4.04-8.1-6.31-17.24-6.31-26.92,0-33.4,27.08-60.48,60.48-60.48Z"/>
    </g>
  </g>
</svg>