<?xml version="1.0" encoding="UTF-8"?>
<svg id="Layer_2" data-name="Layer 2" xmlns="http://www.w3.org/2000/svg" viewBox="0 0 240 240">
  <defs>
    <style>
      .cls-1 {
        fill: #fff;
      }

      .cls-2 {
        fill: none;
      }
    </style>
  </defs>
  <g id="Layer_1-2" data-name="Layer 1">
    <g>
      <g>
        <path class="cls-1" d="m187.04,191.64c-.2.04-.4.08-.61.12l-.8.06c-.79.13-1.57.26-2.36.39-.91.06-1.82.16-2.72.16-38.66,0-77.32,0-115.98.01-.36,0-.73.02-1.09.03-.2,0-.4,0-.59,0-.46,0-.92,0-1.39,0h-1.72c.57.42.94.7,1.32.97,1.92,1.39,3.83,2.79,5.75,4.18.13.13.27.26.4.39.66.49,1.33.97,1.99,1.46.02.05.06.08.11.08.54.48,1.08.95,1.62,1.43.21.27.42.55.63.82.22.51.43,1.03.65,1.54.07.94.28,1.88.2,2.8-.15,1.72-1.17,3-2.42,4.11-.2.13-.39.27-.59.4-.2.09-.39.18-.59.27l-1.79.58c-.46,0-.93,0-1.39,0-.58-.15-1.25-.17-1.73-.48-2.1-1.41-4.15-2.9-6.21-4.36-.07-.05-.15-.1-.22-.15-.39-.28-.78-.56-1.17-.84-.08-.05-.15-.1-.23-.15-.19-.15-.38-.3-.57-.44-.08-.05-.15-.1-.23-.15-.33-.26-.65-.53-.98-.78-2.37-1.8-4.74-3.6-7.1-5.4-.7-.47-1.4-.94-2.1-1.41l-.03-.03c-1.41-1.1-2.82-2.21-4.23-3.31-.06-.06-.12-.13-.17-.19-.41-.27-.81-.53-1.22-.8-.73-.53-1.45-1.06-2.18-1.59-.59-.59-1.18-1.18-1.77-1.77-.72-1.36-1.17-2.79-1.04-4.35v-1.43c.6-.68,1.24-1.41,1.88-2.14.06-.02.1-.06.12-.12l.41-.45c.19-.14.38-.28.57-.42.07-.04.14-.09.21-.13.19-.15.39-.31.58-.46.07-.05.14-.09.21-.14.19-.15.39-.3.58-.46.07-.05.14-.09.21-.14.19-.15.38-.3.57-.45.07-.05.15-.1.22-.15.19-.15.38-.3.57-.45.07-.05.15-.1.22-.15.19-.15.38-.3.57-.45.07-.05.15-.1.22-.15.19-.15.38-.3.57-.45.14-.18.28-.36.42-.54.39-.22.78-.43,1.17-.65.07-.05.14-.09.21-.14.19-.15.39-.3.58-.46.07-.04.14-.09.21-.13.12-.09.25-.17.37-.26.08-.05.15-.1.23-.16.38-.28.77-.55,1.14-.85,1.35-1.11,2.68-2.24,4.02-3.36.13-.12.27-.23.4-.35.27-.1.58-.16.8-.32,2.91-2.18,5.82-4.37,8.72-6.57,1.78-1.35,3.53-2.77,5.95-2.72,2,.21,3.65,1.1,4.96,2.61.27.59.68,1.15.78,1.76.18,1.18.18,2.39.25,3.59-.05.05-.06.1-.05.17-.12.28-.23.57-.35.85-.21.32-.42.64-.64.96-.45.45-.87.95-1.37,1.35-1.45,1.16-2.93,2.27-4.4,3.41l-1.97,1.42c-1.24.92-2.48,1.85-3.72,2.77.04.06.08.12.11.18.33,0,.66,0,.99,0,39.81,0,79.62,0,119.44,0,.33,0,.66-.03.99-.04,1.25-.18,2.51-.37,3.76-.55.07-.05.13-.11.2-.16.27-.07.54-.14.8-.21,1.78-.29,3.24-1.28,4.73-2.2.07-.05.14-.09.22-.14.13-.09.26-.18.38-.27.07-.05.14-.09.21-.14.47-.41.93-.81,1.4-1.22.39-.4.79-.81,1.18-1.21,3.24-3.07,4.66-6.94,4.96-11.3.05-.46.1-.93.16-1.39.01-.36.03-.72.03-1.09,0-20.53,0-41.06,0-61.59,0-.59-.02-1.19-.03-1.78.41-1.46.85-2.89,2.1-3.92,1.55-1.27,3.24-1.96,5.27-1.47.2,0,.39,0,.59,0,.06.02.12.05.19.07.99.64,2.1,1.16,2.94,1.95,1.45,1.37,1.61,3.31,1.61,5.15.04,20.25.03,40.49.02,60.74,0,1.7-.13,3.4-.2,5.11-.02.43.05.88-.05,1.29-.25,1.1-.58,2.18-.87,3.27-.08.2-.15.4-.23.6-.33,1.06-.66,2.12-.99,3.17-.08.2-.16.39-.25.59-.27.59-.53,1.18-.8,1.76-.21.4-.42.8-.63,1.2-.85,1.31-1.7,2.62-2.55,3.93-.6.74-1.19,1.48-1.79,2.22-.65.6-1.31,1.21-1.96,1.81-.33.32-.66.65-.99.97-.13.11-.27.21-.4.32-.47.35-.93.7-1.4,1.05-.4.27-.79.53-1.19.8-2.64,1.28-5.28,2.55-7.92,3.83-.14.04-.28.08-.41.12-.2.08-.4.15-.6.23-.65.15-1.31.3-1.96.45Z"/>
        <path class="cls-1" d="m181.68,48.8c-.13-.08-.26-.16-.39-.23-.73-.53-1.45-1.06-2.18-1.59-.26-.19-.52-.39-.78-.58-.18-.18-.35-.36-.54-.53-.94-.89-1.89-1.78-2.84-2.67.02-.07,0-.12-.06-.15-.24-.53-.49-1.06-.73-1.59.04-.94-.08-1.93.15-2.81.78-2.94,2.76-4.57,5.78-4.94.33,0,.66,0,.99,0,.52.15,1.05.3,1.57.45h0c.07.04.15.09.22.14.39.23.79.43,1.15.69,2.49,1.84,4.97,3.69,7.45,5.53,3.68,2.73,7.36,5.47,11.04,8.2,1.19.89,2.38,1.78,3.57,2.66.19.14.38.29.57.43.53.4,1.06.8,1.58,1.19.2.18.41.36.61.53.35.34.68.71,1.07,1.01,3.11,2.41,2.9,6.51.4,8.93-.89.86-1.9,1.59-2.86,2.38-.54.39-1.09.78-1.63,1.18-.18.14-.37.28-.55.41-.66.47-1.32.94-1.98,1.42l-.4.37c-.46.34-.91.67-1.37,1.01-.14.11-.28.21-.42.32-.07.03-.13.06-.2.09-.73.58-1.46,1.15-2.2,1.73-.33.22-.65.44-.98.66-.07.06-.13.11-.2.17-1,.79-2,1.58-3,2.37-.08.07-.16.14-.24.22-.11.11-.22.22-.33.32-.33.17-.66.34-.99.51-.08.05-.15.1-.23.15l-.76.77c-.2.08-.39.16-.59.24-.07.06-.13.11-.2.17l-1.78,1.38c-.61.46-1.22.92-1.83,1.38-.45.34-.9.67-1.34,1.01-.4.27-.79.55-1.19.82-.4.31-.8.63-1.2.94-.13.07-.26.14-.4.2-.59.22-1.18.44-1.78.67-.2.06-.4.12-.6.18-.2,0-.4,0-.6,0-.78-.15-1.57-.3-2.35-.44-.55-.37-1.12-.73-1.66-1.13-.52-.39-1-.84-1.5-1.26-.03-.13-.05-.25-.08-.38-.25-.6-.5-1.19-.75-1.79,0-.92,0-1.84,0-2.77.24-.53.49-1.06.73-1.59,1.02-.99,2.04-1.98,3.06-2.98.05-.04.11-.09.16-.13.12-.09.24-.17.37-.26l.23-.16c.46-.35.91-.7,1.37-1.04.07-.05.14-.1.22-.14.19-.15.38-.29.57-.44.08-.05.15-.1.23-.15.72-.54,1.43-1.09,2.15-1.63.08-.05.15-.1.23-.16.26-.21.53-.43.79-.64l.2-.12c.13-.09.26-.19.38-.28.07-.05.14-.1.22-.14.26-.21.51-.43.77-.64.06,0,.14.02.19,0,.29-.16.59-.31.86-.5.03-.02-.13-.29-.19-.44-.28.18-.56.37-.84.55-.66-.12-1.32-.25-1.97-.37-.23-.01-.46-.03-.69-.03-38.42,0-76.84,0-115.26,0-.44,0-.89.15-1.33.18-1.3.08-2.6.14-3.9.21-.06.05-.13.11-.19.16-2.1.11-4.03.73-5.76,1.96,0,0,0,0,0,0-.4.35-.8.7-1.21,1.05l-.2.05c-.85.65-1.7,1.3-2.55,1.95-2.2,2.27-3.83,4.9-4.79,7.91-.06.2-.12.4-.19.6-.18,1.26-.36,2.52-.54,3.78,0,.13,0,.26,0,.4,0,.13,0,.26,0,.4v.6c-.01.36-.03.72-.03,1.09,0,20.37,0,40.74,0,61.11,0,2.44-.59,4.61-2.59,6.2-.92.35-1.84.7-2.77,1.05-.73,0-1.46-.01-2.19-.02-.13-.12-.26-.25-.39-.37-.13,0-.26,0-.39.01-.07,0-.13,0-.2-.01l-.19.02c-.92-.62-1.85-1.25-2.77-1.87-.13-.14-.25-.27-.38-.41h.01c-.02-.11-.05-.24-.07-.36-.26-.86-.52-1.72-.78-2.58,0-.33,0-.66,0-.99.01-.23.03-.46.03-.69,0-19.97,0-39.94,0-59.91,0-.23-.02-.46-.03-.69.15-2.31.11-4.65.49-6.92.38-2.23,1.18-4.38,1.8-6.57.04-.06.09-.13.13-.19,1.04-1.99,1.93-4.09,3.16-5.95,1.82-2.75,4.11-5.13,6.74-7.15.07-.05.14-.1.21-.14.19-.15.38-.3.57-.44.08-.05.15-.1.23-.15.52-.35,1.05-.7,1.57-1.05.07-.05.14-.09.22-.14,1.51-.77,2.98-1.65,4.54-2.28,3.4-1.38,6.89-2.48,10.63-2.34.1,0,.2-.11.31-.17.26-.02.52-.04.78-.06.86.01,1.72.03,2.57.03,38.88,0,77.76,0,116.64,0h1.63c.02-.06.04-.13.05-.19-1.69-1.25-3.39-2.51-5.08-3.76Z"/>
      </g>
      <rect class="cls-2" width="240" height="240"/>
    </g>
  </g>
</svg>