<?xml version="1.0" encoding="UTF-8"?>
<svg id="Layer_2" data-name="Layer 2" xmlns="http://www.w3.org/2000/svg" viewBox="0 0 205 205">
  <defs>
    <style>
      .cls-1 {
        fill: #5c5c7b;
        fill-rule: evenodd;
      }

      .cls-2 {
        fill: none;
      }
    </style>
  </defs>
  <g id="Layer_1-2" data-name="Layer 1">
    <path class="cls-1" d="m151,46.07c-8.57,1.53-20.13,5.36-36.35,10.77l-36.72,12.24c-13.04,4.35-22.49,7.5-29.16,10.34-6.98,2.97-9.46,5.04-10.26,6.42-2.48,4.27-2.48,9.54,0,13.82.81,1.39,3.29,3.45,10.26,6.42,6.67,2.84,16.12,5.99,29.16,10.34.21.07.41.14.61.2,3.56,1.18,6.33,2.11,8.71,3.7,2.29,1.54,4.27,3.51,5.8,5.8,1.6,2.38,2.52,5.15,3.7,8.71.07.2.13.4.2.61,4.35,13.04,7.5,22.49,10.34,29.16,2.97,6.98,5.04,9.46,6.42,10.26,4.27,2.48,9.54,2.48,13.82,0,1.39-.81,3.45-3.29,6.42-10.26,2.84-6.67,5.99-16.12,10.34-29.16l12.24-36.72c5.41-16.22,9.25-27.78,10.77-36.35,1.53-8.61.36-12.27-1.84-14.47-2.2-2.2-5.86-3.37-14.47-1.84Zm-1.97-11.09c9.54-1.7,18.14-1.31,24.4,4.96,6.27,6.27,6.66,14.86,4.96,24.4-1.69,9.48-5.8,21.83-11.01,37.45l-12.49,37.48c-4.24,12.72-7.53,22.6-10.57,29.74-2.93,6.89-6.18,12.72-11.12,15.59-7.77,4.52-17.36,4.52-25.13,0-4.94-2.87-8.19-8.7-11.12-15.59-3.04-7.14-6.33-17.02-10.57-29.74l-.09-.27c-1.49-4.46-1.94-5.66-2.58-6.62-.72-1.07-1.64-1.99-2.71-2.71-.96-.64-2.17-1.09-6.62-2.58l-.27-.09c-12.72-4.24-22.6-7.53-29.74-10.57-6.89-2.93-12.72-6.18-15.59-11.12-4.52-7.77-4.52-17.36,0-25.13,2.87-4.94,8.7-8.19,15.59-11.12,7.14-3.04,17.02-6.33,29.74-10.57l37.48-12.49c15.63-5.21,27.97-9.32,37.45-11.01Zm-1.42,30.83c2.19,2.21,2.17,5.78-.04,7.96l-30.03,29.69c-2.21,2.19-5.78,2.17-7.96-.04-2.19-2.21-2.17-5.77.04-7.96l30.03-29.7c2.21-2.19,5.78-2.17,7.96.04Z"/>
    <rect class="cls-2" width="205" height="205"/>
  </g>
</svg>