<?xml version="1.0" encoding="UTF-8"?>
<svg id="Layer_2" data-name="Layer 2" xmlns="http://www.w3.org/2000/svg" viewBox="0 0 151.75 189.97">
  <defs>
    <style>
      .cls-1 {
        fill: #fff;
      }
    </style>
  </defs>
  <g id="Layer_1-2" data-name="Layer 1">
    <path class="cls-1" d="m111.23,189.17c-.13.07-.26.14-.39.21-.2-.13-.4-.26-.6-.38-.12.24-.25.49-.37.73-.32.08-.65.17-.97.25-.06-.01-.13-.03-.19-.03-21.78,0-43.56.01-65.34.01-.43,0-.87-.15-1.3-.22-.5-.32-.98-.66-1.5-.94-.09-.05-.3.14-.46.23-.19-.16-.37-.31-.56-.47.21-1.06.06-1.29-.94-1.41v-.05c-.06-.11-.12-.23-.17-.34-.02-.2-.04-.4-.07-.6.13-.29.37-.58.37-.87,0-.73-.15-1.46-.15-2.18,0-31.52,0-63.03,0-94.55,0-.3.04-.61-.02-.9-.04-.18-.25-.31-.39-.46l.05-2.21c.86-.22.54-.83.33-1.3-.21-.47-.45-.35-.56.12-.13-.02-.25-.04-.38-.05-.26-.53-.52-.53-.78,0-.35.01-.71.03-1.06.03-9.96,0-19.92,0-29.88.03-1.54,0-2.99-.19-4.3-1.07-1.54-1.58-1.9-3.46-1.34-5.58.19-.33.37-.66.56-.99.73-.79,1.45-1.6,2.19-2.37,12.89-13.38,25.8-26.76,38.69-40.14,7.19-7.46,14.35-14.95,21.54-22.41,3.33-3.45,6.7-6.85,10.05-10.27.28-.14.55-.32.84-.41.73-.22,1.54-.68,2.19-.51.98.26,1.84.98,2.76,1.51.07.08.14.15.2.23.11.11.22.23.33.34.15.16.3.31.45.47.01.07.05.11.12.12,1.87,1.98,3.73,3.97,5.62,5.93,21.1,21.9,42.21,43.8,63.29,65.72.95.99,1.65,2.24,2.47,3.37.07.47.14.95.21,1.42l-.06-.02c-.6.23-.83.53-.2,1.02-.38,1.73-1.91,3.22-3.53,3.45-.17.02-.34.13-.51.2-4.2-.01-8.39-.03-12.59-.03-7.1,0-14.2.01-21.31.02-.25.04-.49.09-.74.13.23.22.46.44.7.66.02.27.04.54.06.8,0,.2,0,.4,0,.6-.04,1.07-.12,2.13-.12,3.2,0,31.02,0,62.03,0,93.05,0,.43.04.86.06,1.3l-.33,3.63-.07-.02c-.05.07-.09.15-.14.22h0c-.55.32-1.1.64-1.75,1.02v.79ZM44.77,74.52l1.33,1.06c.39.65.79,1.31,1.18,1.96,0,.23,0,.46,0,.7-.13.41-.36.82-.36,1.23-.02,31.75-.01,63.49-.02,95.24,0,1.1-.19,2.2-.15,3.29.01.38.46.73.71,1.1.02.07.04.13.06.2-.02.13-.04.27-.07.4-.21.26-.41.53-.62.79.36.09.72.23,1.09.26.1,0,.23-.27.34-.41.35-.01.71-.03,1.06-.03,17.44,0,34.88,0,52.32,0,.35,0,.71-.02,1.06-.03h1.44c0-2.12,0-4.15,0-6.19,0-25.04,0-50.09,0-75.13,0-6.12.1-12.23.09-18.35,0-1.8,0-3.56,1.2-5.03.39-.29.78-.58,1.17-.86.05-.05.11-.11.16-.16.39-.14.78-.28,1.17-.41.51-.02,1.03-.04,1.54-.06.9,0,1.81,0,2.71,0,6.13,0,12.27,0,18.4,0,.91-.05,1.81-.1,2.72-.14l1.53.15c.34.17.68.44,1.02.45.17,0,.34-.51.51-.78-.38-.15-.75-.3-1.13-.45-1.42-1.47-2.85-2.93-4.27-4.4-.08-.3-.04-.81-.58-.4-1.7-1.81-3.39-3.64-5.11-5.43-13.62-14.15-27.25-28.3-40.88-42.45-2.7-2.8-5.38-5.63-8.06-8.45.13-.8-.4-1.11-.97-1.13-.68-.02-.57.63-.57,1.1,0,.13,0,.26,0,.39-1.05,1.13-2.07,2.27-3.14,3.38-8.98,9.33-17.97,18.66-26.95,27.99-9.35,9.71-18.71,19.42-28.06,29.13-.22.23-.47.45-.7.67-.31.11-.63.19-.92.34-.03.02.02.39.12.5.37.41,1.61.13,1.93-.4.32-.02.65-.04.97-.07,1.23,0,2.45,0,3.68,0,6.13,0,12.27,0,18.4,0,1.55.18,3.15-.29,4.65.44Z"/>
  </g>
</svg>